<svg width="362" height="81" viewBox="0 0 362 81" fill="none" xmlns="http://www.w3.org/2000/svg">
<path d="M124.337 23.46C127.552 23.46 130.054 24.57 131.843 26.79C133.659 28.98 134.566 32.16 134.566 36.33V55.59H126.865V36.6C126.865 34.71 126.437 33.285 125.581 32.325C124.726 31.335 123.585 30.84 122.158 30.84C120.629 30.84 119.41 31.365 118.502 32.415C117.621 33.435 117.18 34.9799 117.18 37.05V55.59H109.479V36.6C109.479 34.71 109.077 33.285 108.273 32.325C107.495 31.335 106.419 30.84 105.044 30.84C103.566 30.84 102.387 31.365 101.505 32.415C100.623 33.435 100.183 34.9799 100.183 37.05V55.59H92.4812V24.09H99.9491V27.6C100.779 26.25 101.842 25.23 103.139 24.54C104.461 23.82 105.991 23.46 107.728 23.46C109.517 23.46 111.073 23.835 112.396 24.585C113.744 25.335 114.833 26.43 115.663 27.87C116.596 26.43 117.815 25.335 119.319 24.585C120.823 23.835 122.496 23.46 124.337 23.46Z" fill="#4A3F35"/>
<path d="M153.072 49.4699C154.084 49.4699 154.952 49.305 155.678 48.975C156.43 48.645 157.182 48.1049 157.934 47.3549L161.785 52.035C159.788 54.6749 156.806 55.9949 152.839 55.9949C150.376 55.9949 148.211 55.455 146.344 54.375C144.477 53.295 143.024 51.795 141.987 49.875C140.976 47.955 140.47 45.78 140.47 43.35C140.47 40.95 140.976 38.805 141.987 36.915C142.999 34.995 144.386 33.495 146.149 32.415C147.938 31.335 149.935 30.795 152.139 30.795C154.187 30.795 156.054 31.29 157.74 32.28C159.451 33.24 160.813 34.665 161.824 36.555C162.835 38.415 163.341 40.635 163.341 43.215L148.288 46.545C149.092 48.495 150.687 49.4699 153.072 49.4699ZM152.178 36.87C150.907 36.87 149.87 37.335 149.066 38.265C148.262 39.165 147.809 40.47 147.705 42.18L156.262 40.245C156.003 39.225 155.51 38.415 154.784 37.815C154.058 37.185 153.189 36.87 152.178 36.87Z" fill="#4A3F35"/>
<path d="M191.369 31.2V55.59H184.329V53.16C182.955 55.0499 180.88 55.9949 178.106 55.9949C176.187 55.9949 174.437 55.485 172.855 54.465C171.299 53.4149 170.054 51.93 169.121 50.01C168.213 48.09 167.759 45.87 167.759 43.35C167.759 40.83 168.213 38.625 169.121 36.735C170.054 34.815 171.299 33.345 172.855 32.325C174.437 31.305 176.187 30.795 178.106 30.795C180.595 30.795 182.553 31.635 183.979 33.315V31.2H191.369ZM179.661 49.2C180.958 49.2 182.021 48.69 182.851 47.67C183.681 46.62 184.096 45.18 184.096 43.35C184.096 41.55 183.681 40.1399 182.851 39.12C182.021 38.1 180.958 37.59 179.661 37.59C178.365 37.59 177.302 38.1 176.472 39.12C175.642 40.1399 175.227 41.55 175.227 43.35C175.227 45.18 175.642 46.62 176.472 47.67C177.302 48.69 178.365 49.2 179.661 49.2Z" fill="#4A3F35"/>
<path d="M206.667 55.9949C204.074 55.9949 202.051 55.2299 200.599 53.7C199.173 52.14 198.46 49.92 198.46 47.04V22.2H205.85V46.59C205.85 47.49 206.045 48.18 206.434 48.66C206.849 49.1399 207.419 49.3799 208.145 49.3799C208.742 49.3799 209.299 49.2299 209.818 48.93L210.129 55.365C209.014 55.785 207.86 55.9949 206.667 55.9949Z" fill="#4A3F35"/>
<path d="M236.39 39.165C237.945 39.795 239.164 40.785 240.046 42.135C240.927 43.455 241.368 45.0599 241.368 46.95C241.368 49.71 240.409 51.84 238.49 53.34C236.571 54.84 233.797 55.59 230.166 55.59H215.464V24.09H229.388C232.863 24.09 235.508 24.84 237.323 26.34C239.138 27.81 240.046 29.805 240.046 32.325C240.046 33.825 239.722 35.175 239.073 36.375C238.451 37.545 237.556 38.475 236.39 39.165ZM223.087 30.525V36.6H228.377C230.97 36.6 232.267 35.58 232.267 33.54C232.267 31.53 230.97 30.525 228.377 30.525H223.087ZM229.544 49.155C232.241 49.155 233.589 48.09 233.589 45.96C233.589 43.83 232.241 42.7649 229.544 42.7649H223.087V49.155H229.544Z" fill="#4A3F35"/>
<path d="M269.511 31.2V55.59H262.471V52.9799C261.693 53.9699 260.76 54.72 259.671 55.2299C258.582 55.74 257.428 55.9949 256.209 55.9949C253.486 55.9949 251.308 55.065 249.675 53.205C248.067 51.345 247.263 48.555 247.263 44.835V31.2H254.653V43.44C254.653 45.27 254.951 46.605 255.548 47.445C256.144 48.285 257.013 48.705 258.154 48.705C259.321 48.705 260.267 48.24 260.993 47.3099C261.745 46.35 262.121 44.895 262.121 42.945V31.2H269.511Z" fill="#4A3F35"/>
<path d="M299.009 22.2V55.59H291.969V53.16C290.595 55.0499 288.533 55.9949 285.784 55.9949C283.866 55.9949 282.115 55.485 280.534 54.465C278.952 53.4149 277.694 51.93 276.761 50.01C275.853 48.09 275.399 45.87 275.399 43.35C275.399 40.83 275.853 38.625 276.761 36.735C277.694 34.815 278.952 33.345 280.534 32.325C282.115 31.305 283.866 30.795 285.784 30.795C288.3 30.795 290.244 31.635 291.619 33.315V22.2H299.009ZM287.34 49.2C288.611 49.2 289.661 48.69 290.491 47.67C291.321 46.62 291.735 45.18 291.735 43.35C291.735 41.55 291.321 40.1399 290.491 39.12C289.687 38.1 288.637 37.59 287.34 37.59C286.044 37.59 284.981 38.1 284.151 39.12C283.321 40.1399 282.906 41.55 282.906 43.35C282.906 45.18 283.321 46.62 284.151 47.67C284.981 48.69 286.044 49.2 287.34 49.2Z" fill="#4A3F35"/>
<path d="M328.501 22.2V55.59H321.461V53.16C320.087 55.0499 318.025 55.9949 315.277 55.9949C313.358 55.9949 311.608 55.485 310.026 54.465C308.444 53.4149 307.186 51.93 306.253 50.01C305.345 48.09 304.892 45.87 304.892 43.35C304.892 40.83 305.345 38.625 306.253 36.735C307.186 34.815 308.444 33.345 310.026 32.325C311.608 31.305 313.358 30.795 315.277 30.795C317.792 30.795 319.737 31.635 321.111 33.315V22.2H328.501ZM316.832 49.2C318.103 49.2 319.153 48.69 319.983 47.67C320.813 46.62 321.228 45.18 321.228 43.35C321.228 41.55 320.813 40.1399 319.983 39.12C319.179 38.1 318.129 37.59 316.832 37.59C315.536 37.59 314.473 38.1 313.643 39.12C312.813 40.1399 312.398 41.55 312.398 43.35C312.398 45.18 312.813 46.62 313.643 47.67C314.473 48.69 315.536 49.2 316.832 49.2Z" fill="#4A3F35"/>
<path d="M357.76 31.2V51.135C357.76 55.665 356.71 59.055 354.609 61.305C352.535 63.5849 349.54 64.7249 345.625 64.7249C343.576 64.7249 341.657 64.455 339.868 63.915C338.105 63.375 336.601 62.58 335.356 61.53L338.04 55.5449C338.87 56.3549 339.907 56.985 341.152 57.435C342.422 57.915 343.68 58.1549 344.924 58.1549C346.791 58.1549 348.166 57.66 349.047 56.6699C349.929 55.68 350.37 54.21 350.37 52.26V51.72C348.788 53.46 346.817 54.33 344.458 54.33C341.735 54.33 339.557 53.4 337.923 51.54C336.316 49.68 335.512 46.8899 335.512 43.17V31.2H342.902V41.775C342.902 43.635 343.2 44.985 343.796 45.825C344.393 46.6649 345.262 47.085 346.402 47.085C347.569 47.085 348.516 46.605 349.242 45.645C349.994 44.685 350.37 43.245 350.37 41.325V31.2H357.76Z" fill="#4A3F35"/>
<path d="M7.66355 45.7559C10.2066 47.7153 12.7497 49.6747 15.3698 51.6935C15.5416 51.4888 15.7135 51.284 15.8905 51.073C13.5192 48.9088 11.148 46.7447 8.70487 44.5149C9.0485 44.1054 9.39214 43.6958 9.74618 43.2739C12.2893 45.2333 14.8323 47.1927 17.4525 49.2115C17.6243 49.0068 17.7961 48.802 17.9731 48.591C15.6019 46.4269 13.2306 44.2627 10.7875 42.0329C11.4912 41.4021 12.195 40.7714 12.9201 40.1215C16.1118 40.4744 18.8877 43.4197 21.3059 45.4068C21.6094 45.6461 21.9129 45.8854 22.2256 46.132C24.0429 47.6291 25.0198 48.6782 25.3799 51.1052C25.3173 51.606 25.3173 51.606 25.2535 52.1168C25.1683 53.1422 25.1683 53.1422 25.8141 53.828C26.0756 54.038 26.3372 54.2479 26.6066 54.4643C26.9013 54.7062 27.196 54.9482 27.4996 55.1975C27.8225 55.4526 28.1454 55.7077 28.4781 55.9705C28.9703 56.3734 28.9703 56.3734 29.4725 56.7844C30.5238 57.6442 31.5816 58.4956 32.6408 59.3457C33.6954 60.1946 34.7482 61.0452 35.7964 61.9019C36.4489 62.4351 37.1052 62.9637 37.7655 63.4873C39.4721 64.8796 40.5823 65.9363 41.2417 68.1157C41.2916 68.6863 41.2916 68.6863 40.3798 69.9699C39.3687 71.1489 39.3687 71.1489 38.1423 71.2975C36.629 70.9176 35.698 70.3958 34.5431 69.3776C34.2551 69.1256 33.9671 68.8737 33.6704 68.6141C33.3605 68.3414 33.0507 68.0688 32.7315 67.7879C32.0713 67.2169 31.4107 66.6464 30.7497 66.0764C29.7077 65.176 28.6684 64.2732 27.636 63.3619C26.6391 62.4837 25.6326 61.6178 24.6238 60.7534C24.3179 60.4787 24.0119 60.2039 23.6967 59.9209C22.1689 58.5508 22.1689 58.5508 20.2549 58.0676C19.4907 58.2204 18.7393 58.4337 17.9908 58.651C16.507 58.5033 15.711 57.9261 14.5852 56.9726C14.128 56.5874 14.128 56.5874 13.6615 56.1944C13.1902 55.7892 13.1902 55.7892 12.7095 55.3759C12.3983 55.1145 12.0871 54.853 11.7665 54.5837C6.7853 50.354 6.7853 50.354 6.1515 48.1879C6.62224 46.9969 6.62224 46.9969 7.66355 45.7559Z" fill="#4A3F35"/>
<path d="M75.763 40.5376C77.3241 42.9877 77.555 44.4672 77.0313 47.4037C75.9325 50.9785 73.485 53.959 70.3619 56.0791C68.4499 57.0208 66.4593 57.4766 64.3989 57.8952C62.061 58.4059 60.8353 59.1268 59.1117 60.8537C58.697 61.4583 58.697 61.4583 58.2739 62.0751C57.0064 63.8589 55.4812 65.1317 53.8018 66.5318C53.4927 66.7997 53.1835 67.0676 52.865 67.3437C50.7342 69.1339 48.5592 70.7579 45.713 70.7848C44.6561 70.6441 44.3562 70.3123 43.7058 69.5181C43.2595 68.8621 43.2595 68.8621 42.8043 68.1928C43.3749 66.4251 44.0031 66 45.4423 64.8001C45.6634 64.6149 45.8844 64.4296 46.1122 64.2387C46.5829 63.8454 47.0548 63.4536 47.5279 63.0631C48.2334 62.4806 48.9348 61.8935 49.6356 61.3053C51.7868 59.5093 53.9563 57.7701 56.2259 56.1255C60.1729 53.2537 63.9284 50.1324 67.7184 47.0564C68.5011 46.4226 69.2838 45.7888 70.0667 45.1552C71.9664 43.6172 73.8651 42.0779 75.763 40.5376Z" fill="#4A3F35"/>
<path d="M46.2533 6.68647C46.5312 6.78393 46.7939 6.9186 47.04 7.08048C47.6616 7.48949 48.2268 7.91711 48.7721 8.38199C49.6492 9.12977 50.7033 9.66662 51.854 9.7325C52.8659 9.79044 53.8779 9.8197 54.8962 9.85331C58.351 10.2799 60.3024 12.1379 62.4461 14.7431C64.007 17.0863 63.8087 20.121 63.5466 22.8594C63.5073 23.2703 63.4217 23.6768 63.2586 24.056C62.5318 25.7447 61.358 27.2095 59.9303 28.3728C58.5287 29.5148 57.4223 31.0745 57.3364 32.8804C57.3042 33.5561 57.272 34.2331 57.2397 34.9123C57.1128 37.5783 54.9144 39.6747 52.2454 39.6747C45.6126 39.6747 38.9577 39.6747 32.1881 39.6747C29.5191 39.6747 27.3206 37.5783 27.1937 34.9123C27.1591 34.1852 27.1247 33.4611 27.078 32.4793C27.0025 30.8939 26.1788 29.4367 24.8586 28.5559C24.7622 28.4916 24.6656 28.4271 24.5688 28.3625C24.3126 28.1915 24.072 27.9972 23.8521 27.7815C23.3073 27.2471 23.2226 27.1451 22.6519 26.4569C22.4248 26.189 22.1978 25.9212 21.9638 25.6452C20.7738 23.9732 20.8566 22.3105 20.8313 20.3252C20.8134 19.4904 20.8134 19.4904 20.7952 18.6386C21.0728 15.6379 22.4606 13.8824 24.646 11.9086C26.7454 10.1783 28.3477 10.022 31.0327 9.94188C33.7411 9.7716 34.9766 9.45593 36.7075 7.72176C36.9937 7.43508 37.2974 7.1605 37.6557 6.97173C40.1231 5.67209 43.6647 5.7788 46.2533 6.68647ZM35.8905 30.1599C35.5147 30.0346 35.0369 30.0641 34.8271 30.4001C34.6711 30.65 34.7022 30.9618 34.7896 31.8365C34.7928 31.9846 34.7959 32.1326 34.7991 32.2812C34.8099 32.7895 35.2181 33.1959 35.7265 33.1959C36.2427 33.1959 36.6681 32.7775 36.6681 32.2613C36.6681 31.9242 36.6681 31.5857 36.6681 31.2447C36.6681 30.7518 36.358 30.3159 35.8905 30.1599ZM42.3604 30.1587C41.9863 30.034 41.4954 30.0521 41.3036 30.3966C41.2061 30.5716 41.2184 30.7832 41.2468 31.2744C41.2521 31.6126 41.2575 31.9508 41.263 32.2993C41.2678 32.6002 41.2726 32.901 41.2774 33.2041C41.2855 33.7131 41.6934 34.1215 42.2025 34.1215C42.7172 34.1215 43.1415 33.7041 43.1415 33.1894C43.1415 32.5467 43.1415 31.9015 43.1415 31.2484C43.1415 30.7533 42.83 30.3154 42.3604 30.1587ZM48.8373 30.1599C48.4616 30.0346 47.9837 30.0641 47.774 30.4001C47.6179 30.65 47.6491 30.9618 47.7365 31.8365C47.7396 31.9846 47.7427 32.1326 47.7459 32.2812C47.7567 32.7895 48.165 33.1959 48.6734 33.1959C49.1896 33.1959 49.6149 32.7775 49.6149 32.2613C49.6149 31.9242 49.6149 31.5857 49.6149 31.2447C49.6149 30.7518 49.3049 30.3159 48.8373 30.1599Z" fill="#4A3F35"/>
<path d="M27.2754 44.155C27.2754 42.1103 28.9329 40.425 30.9775 40.425C38.3108 40.425 45.6651 40.425 53.1656 40.425C55.2102 40.425 56.8678 42.0548 56.8678 44.0994C56.8678 46.1441 55.2103 47.8293 53.1656 47.8293C45.8324 47.8293 38.4781 47.8293 30.9776 47.8293C28.9329 47.8293 27.2754 46.1996 27.2754 44.155Z" fill="#4A3F35"/>
</svg>
